<svg height="48" viewBox="0 0 48 48" width="48" xmlns="http://www.w3.org/2000/svg"><g fill="none" fill-rule="evenodd"><rect fill="#001eac" height="48" rx="14" width="48"/><path d="m13.1986971 38c1.0944625 0 2.0521172-.181987 2.8729641-.545961s1.5309447-.8579387 2.1302932-1.4818942c1.1986971-1.273909 1.7980456-2.8597957 1.7980456-4.7576601v-21.2144847h-3.9869707v20.6685237c0 .7019498-.0912052 1.2674094-.2736156 1.6963788s-.4169381.7604457-.7035831.994429c-.2866449.2599814-.5863192.4354689-.8990228.5264624s-.5863192.1364902-.8208469.1364902c-.4169381 0-.8143322-.097493-1.1921824-.2924791s-.7100977-.4354689-.9967427-.7214485l-3.1270358 2.4958218c.49511401.545961 1.16612378 1.0984215 2.0130293 1.6573816.8469056.5589601 1.9087948.8384401 3.1856678.8384401zm16.3013029 0c.785575 0 1.5648148-.1418048 2.3377193-.4254144.7729045-.2836095 1.4761209-.7090239 2.1096491-1.2762431.6081872-.5414364 1.1023392-1.2246777 1.4824562-2.0497237.3801169-.8250461.5701754-1.8176796.5701754-2.9779006v-8.6629834h-6.9561404v3.480663h3.0789474v5.1823204c0 .9539595-.2597466 1.6565378-.7792397 2.1077348-.5194932.4511971-1.1340156.6767956-1.8435673.6767956s-1.3240741-.2255985-1.8435673-.6767956c-.5194931-.451197-.7792397-1.1537753-.7792397-2.1077348v-14.5414364c0-.9539595.2597466-1.6565378.7792397-2.1077348.5194932-.4511971 1.1340156-.6767956 1.8435673-.6767956s1.3240741.2255985 1.8435673.6767956c.5194931.451197.7792397 1.1537753.7792397 2.1077348v1.3922652h3.877193v-1.3922652c0-1.1086556-.1900585-2.0883978-.5701754-2.9392266-.380117-.8508287-.874269-1.5598526-1.4824562-2.1270718-.6335282-.5414364-1.3367446-.9539595-2.1096491-1.237569-.7729045-.2836096-1.5521443-.4254144-2.3377193-.4254144s-1.5648148.1418048-2.3377193.4254144c-.7729045.2836095-1.4634503.6961326-2.0716374 1.237569-.6335283.5672192-1.1403509 1.2762431-1.5204679 2.1270718-.3801169.8508288-.5701754 1.830571-.5701754 2.9392266v14.5414364c0 1.160221.1900585 2.1528545.5701754 2.9779006.380117.825046.8869396 1.5082873 1.5204679 2.0497237.6081871.5672192 1.2987329.9926336 2.0716374 1.2762431.7729045.2836096 1.5521443.4254144 2.3377193.4254144z" fill="#fff" fill-rule="nonzero"/></g></svg>